<svg width="590" height="218" viewBox="0 0 590 218" fill="none" xmlns="http://www.w3.org/2000/svg">
<path d="M589.8 2.5H546.7V45.6H589.8V2.5Z" fill="#61A9D6"/>
<path d="M538.4 2.5H495.3V45.6H538.4V2.5Z" fill="#61A9D6"/>
<path d="M443.8 45.6H486.9V2.5C486.9 2.5 470.6 4.99999 457.8 17.8C444.6 31 443.8 45.6 443.8 45.6Z" fill="#61A9D6"/>
<path d="M589.8 54.6001H546.7V97.7001H589.8V54.6001Z" fill="#61A9D6"/>
<path d="M538.4 54.6001H495.3V97.7001H538.4V54.6001Z" fill="#7E71B4"/>
<path d="M486.9 54.6001H443.8V97.7001H486.9V54.6001Z" fill="#61A9D6"/>
<path d="M546.7 150.4C546.7 150.4 566.4 148.6 577.4 134.3C592.4 114.9 589.8 107.2 589.8 107.2H546.7V150.4V150.4Z" fill="#61A9D6"/>
<path d="M538.4 107.2H495.3V150.3H538.4V107.2Z" fill="#61A9D6"/>
<path d="M486.9 107.2H443.8V150.3H486.9V107.2Z" fill="#61A9D6"/>
<path d="M48 150.4H0V2.59998H41.2C60.9 2.59998 82.7 15.3 82.7 41.3C82.7 52.2 77.6 63.5 69 67.2C82.7 71.1 96.3 86.4 96.3 105.4C96.4 136 70.9 150.4 48 150.4ZM37.5 21.1H21.3V61H37.5C49.8 61 60.4 55.2 60.4 41.3C60.5 27.1 49.8 21.1 37.5 21.1ZM43.3 79H21.3V131.8H43.3C59.1 131.8 73.9 123.7 73.9 105.4C73.9 87.6 59.1 79 43.3 79Z" fill="#7E71B4"/>
<path d="M160.8 85.5H136.2V150.4H114V2.59998H160.8C181.6 2.59998 205.3 16 205.3 44.1C205.3 72.2 181.6 85.5 160.8 85.5ZM156.8 22H136.2V67H156.8C170 67 182.3 60 182.3 44.5C182.3 29.2 170 22 156.8 22Z" fill="#7E71B4"/>
<path d="M296.5 150.4L280.5 112.2H223L207 150.4H185L248 0.5H256.1L319.1 150.4H296.5ZM258.2 58.2C256.1 53.3 253.8 46.4 251.9 40.1H251.4C249.8 46.4 247.2 53.3 245.1 58.2L230.5 94.3H272.7L258.2 58.2Z" fill="#7E71B4"/>
<path d="M364.6 151.5C348.8 151.5 334.7 146.9 327.1 141.8L324.6 118.4C335.3 126.5 350.3 132.1 365.8 132.1C381.8 132.1 392.4 123.3 392.4 110.1C392.4 96.6999 384.8 89.3 367.4 83.7C341.5 75.4 327.8 62.1999 327.8 40.7999C327.8 20.3999 342.9 1.19995 373.9 1.19995C388.3 1.19995 400.3 5.59994 405.6 9.49994L401.2 28.2999C395.9 24.5999 384.8 19.7 372.9 19.7C358.3 19.7 349.3 28.7 349.3 39.2C349.3 49.9 357.2 56.2999 372.5 61.3999C397.7 69.9999 414.9 81.7999 414.9 108C414.8 133.9 397.5 151.5 364.6 151.5Z" fill="#7E71B4"/>
<path d="M9.09998 207.1H0V179H7.90002C11.7 179 15.8 181.4 15.8 186.4C15.8 188.5 14.8 190.6 13.2 191.3C15.8 192.1 18.4 195 18.4 198.6C18.4 204.4 13.5 207.1 9.09998 207.1ZM7.20001 182.5H4.09998V190.1H7.20001C9.50001 190.1 11.6 189 11.6 186.3C11.5 183.6 9.50001 182.5 7.20001 182.5ZM8.29999 193.5H4.09998V203.6H8.29999C11.3 203.6 14.1 202.1 14.1 198.6C14.1 195.1 11.3 193.5 8.29999 193.5Z" fill="#61A9D6"/>
<path d="M32.9 191.3C32.5 191.2 32 191.1 31.4 191.1C28.8 191.1 26.1 192.3 26.1 197V207.1H22.1V187.1H26.1V191.2C26.9 188.3 29.1 186.9 31.9 186.9C32.5 186.9 33.4 187 33.8 187.2L32.9 191.3Z" fill="#61A9D6"/>
<path d="M38.8 183.2C38 183.2 36.4 181.6 36.4 180.8C36.4 180 38 178.4 38.8 178.4C39.6 178.4 41.2 180 41.2 180.8C41.2 181.6 39.6 183.2 38.8 183.2ZM36.7 207.1V187.1H40.8V207.1H36.7Z" fill="#61A9D6"/>
<path d="M57.9 190.3H51.5V201C51.5 203.3 52.7 204.1 54.8 204.1C55.5 204.1 56.1 204 56.6 203.8L56.2 207C55.7 207.3 54.8 207.4 54 207.4C50.4 207.4 47.5 205.3 47.5 201.4V190.4H43.6V187.2H47.5V183L51.5 180.9V187H58.6L57.9 190.3Z" fill="#61A9D6"/>
<path d="M63.4 183.2C62.6 183.2 61 181.6 61 180.8C61 180 62.6 178.4 63.4 178.4C64.2 178.4 65.8 180 65.8 180.8C65.9 181.6 64.3 183.2 63.4 183.2ZM61.4 207.1V187.1H65.5V207.1H61.4Z" fill="#61A9D6"/>
<path d="M75.6 207.4C73.3 207.4 71.4 206.8 70 205.9L69.5 201.7C71 202.9 73.2 203.9 75.6 203.9C77.5 203.9 78.7 202.9 78.7 201.6C78.7 200.2 77.7 199.5 75.9 198.8C72 197.4 69.8 195.6 69.8 192.4C69.8 189.1 72.5 186.8 76.4 186.8C78.6 186.8 80.8 187.6 81.6 188.1L80.8 191.5C79.9 190.9 78.5 190.2 76.4 190.2C74.8 190.2 73.7 191.1 73.7 192.4C73.7 193.6 74.6 194.2 76.5 194.9C80.4 196.3 82.7 198.1 82.7 201.6C82.8 204.7 80.3 207.4 75.6 207.4Z" fill="#61A9D6"/>
<path d="M100 207.1V194.3C100 192.2 98.7 190.1 95.4 190.1C92.2 190.1 90.6 192.2 90.6 194.3V207.1H86.6V175.7H90.6V189.2C91.6 187.7 93.3 186.6 96.4 186.6C100.8 186.6 104 189.4 104 193.8V207H100V207.1Z" fill="#61A9D6"/>
<path d="M127.5 194.7H122.8V207H118.6V178.9H127.5C131.5 178.9 136 181.5 136 186.8C136 192.2 131.5 194.7 127.5 194.7ZM126.7 182.7H122.8V191.3H126.7C129.2 191.3 131.6 190 131.6 187C131.6 184 129.2 182.7 126.7 182.7Z" fill="#61A9D6"/>
<path d="M150.3 191.3C149.9 191.2 149.4 191.1 148.8 191.1C146.2 191.1 143.5 192.3 143.5 197V207.1H139.5V187.1H143.5V191.2C144.3 188.3 146.5 186.9 149.3 186.9C149.9 186.9 150.8 187 151.2 187.2L150.3 191.3Z" fill="#61A9D6"/>
<path d="M169.5 195.8L167.2 198.1H155.2C155.3 200.6 157.6 204.1 162.3 204.1C164.9 204.1 166.7 203.4 168.1 202.5L167.7 206.4C166.3 207.1 164.5 207.7 161.8 207.7C156.1 207.7 151.1 203.5 151.1 197.2C151.1 190.4 156.4 186.7 161 186.7C166.5 186.7 169.6 190.6 169.6 194.3C169.6 194.8 169.6 195.4 169.5 195.8ZM161.2 190.1C158.7 190.1 156 192.1 155.5 194.9H165.6C165.6 194.7 165.6 194.5 165.6 194.4C165.6 192.3 163.9 190.1 161.2 190.1Z" fill="#61A9D6"/>
<path d="M181.4 217.3C175.9 217.3 172.3 214.3 172.3 210.1C172.3 206.6 174.6 204.8 176.7 204.3L174.4 202.1C174.4 200.6 175.6 199.3 177 198.9C175.2 197.9 173.7 196 173.7 193.4C173.7 189.5 176.8 186.7 181.2 186.7C182.3 186.7 183.1 186.8 183.8 187C184.5 187.2 185.5 187.3 186.5 187.3C187.4 187.3 188.7 186.9 189.4 186.6L190.1 189.9C189.6 190.3 188.4 190.5 187.6 190.5C188 191 188.5 192.2 188.5 193.5C188.5 197.1 185.7 200.2 181 200.2C179.4 200.2 178.5 200.4 178.5 201.3C178.5 201.5 178.6 201.8 179.1 202L184.5 203.9C188 205.1 190.1 207.1 190.1 210.7C190.3 214.5 186.7 217.3 181.4 217.3ZM183.5 207.2L180.1 206.2C177.7 206.2 176 207.9 176 210C176 211.9 177.8 213.9 181.3 213.9C184.8 213.9 186.5 212.1 186.5 210.5C186.5 209.1 185.4 207.8 183.5 207.2ZM181.2 189.9C179 189.9 177.4 191.5 177.4 193.3C177.4 195.2 179 196.7 181.2 196.7C183.2 196.7 185 195.2 185 193.3C185 191.5 183.4 189.9 181.2 189.9Z" fill="#61A9D6"/>
<path d="M206.6 207.1V194.3C206.6 192.2 205.3 190.1 202 190.1C198.8 190.1 197.2 192.2 197.2 194.3V207.1H193.2V187.1H196.9V189.7C197.8 187.9 199.6 186.6 203.1 186.6C207.5 186.6 210.7 189.4 210.7 193.8V207H206.6V207.1Z" fill="#61A9D6"/>
<path d="M229.1 207.6C227.7 207.3 226.2 206.1 225.9 204.5C225 206.8 222.9 207.6 220.6 207.6C216.6 207.6 214.2 204.7 214.2 201.5C214.2 197.6 217.4 195.4 220.8 195.1L225.5 194.7V193.4C225.5 191.6 224.4 190.1 221.6 190.1C219.6 190.1 217.5 190.7 216.1 191.7L215.3 188.4C217.1 187.2 219.4 186.7 221.8 186.7C226.3 186.7 229.5 189.2 229.5 193.9V202C229.5 203.8 230.5 204.9 231.7 205.1L229.1 207.6ZM225.4 197.9L221.6 198.3C219 198.5 218 200.1 218 201.5C218 202.9 219.1 204.2 221 204.2C223.4 204.2 225.5 202.4 225.5 199.7V197.9H225.4Z" fill="#61A9D6"/>
<path d="M247.6 207.1V194.3C247.6 192.2 246.3 190.1 243 190.1C239.8 190.1 238.2 192.2 238.2 194.3V207.1H234.2V187.1H237.9V189.7C238.8 187.9 240.6 186.6 244.1 186.6C248.5 186.6 251.7 189.4 251.7 193.8V207H247.6V207.1Z" fill="#61A9D6"/>
<path d="M271.4 192C269.6 190.9 268 190.5 266.1 190.5C262.5 190.5 259.2 193.1 259.2 197.2C259.2 201.3 262.6 203.9 266.2 203.9C268.1 203.9 269.6 203.5 271.4 202.7L271 206.4C269.5 207.1 267.8 207.4 265.8 207.4C260.4 207.4 255.1 203.6 255.1 197.2C255.1 190.8 260.4 186.9 265.8 186.9C268.4 186.9 270.4 187.4 272.1 188.4L271.4 192Z" fill="#61A9D6"/>
<path d="M285.2 205.2C282.2 212.6 278.9 215.8 275 217.6L272.4 215C275.9 213.5 278.7 211.1 281 205.4L273.5 187.2H277.6L281.3 196.2C281.8 197.4 282.5 199.2 283 200.8H283.1C283.7 199.3 284.4 197.5 284.9 196.3L288.6 187.2H292.4L285.2 205.2Z" fill="#61A9D6"/>
<path d="M324.9 207.1L321.9 199.8H311L308 207.1H303.8L315.8 178.6H317.3L329.3 207.1H324.9ZM317.6 189.5C317.2 188.6 316.8 187.2 316.4 186.1H316.3C316 187.3 315.5 188.6 315.1 189.5L312.3 196.4H320.3L317.6 189.5Z" fill="#61A9D6"/>
<path d="M347 207.1V204.9C346.1 206.2 344.2 207.6 341 207.6C336.6 207.6 331.3 204.1 331.3 197.1C331.3 190.9 335.7 186.6 341.4 186.6C343.6 186.6 346 187.5 346.8 188.3V175.7H350.8V207.1H347ZM346.7 192.2C346.1 191.5 344.4 190.2 341.7 190.2C338.1 190.2 335.2 193 335.2 197.1C335.2 201.3 338.1 204.1 341.7 204.1C344.3 204.1 345.9 202.7 346.7 201.5V192.2Z" fill="#61A9D6"/>
<path d="M363.8 207.4H362.2L353.9 187.1H358L361.7 196C362.2 197.3 362.8 199 363.3 200.5H363.4C363.9 199 364.5 197.2 365 196L368.6 187.1H372.3L363.8 207.4Z" fill="#61A9D6"/>
<path d="M377.5 183.2C376.7 183.2 375.1 181.6 375.1 180.8C375.1 180 376.7 178.4 377.5 178.4C378.3 178.4 379.9 180 379.9 180.8C379.9 181.6 378.3 183.2 377.5 183.2ZM375.5 207.1V187.1H379.6V207.1H375.5Z" fill="#61A9D6"/>
<path d="M389.6 207.4C387.3 207.4 385.4 206.8 384 205.9L383.5 201.7C385 202.9 387.2 203.9 389.6 203.9C391.5 203.9 392.7 202.9 392.7 201.6C392.7 200.2 391.7 199.5 389.9 198.8C386 197.4 383.8 195.6 383.8 192.4C383.8 189.1 386.5 186.8 390.4 186.8C392.6 186.8 394.8 187.6 395.6 188.1L394.8 191.5C393.9 190.9 392.5 190.2 390.4 190.2C388.8 190.2 387.7 191.1 387.7 192.4C387.7 193.6 388.6 194.2 390.5 194.9C394.4 196.3 396.7 198.1 396.7 201.6C396.8 204.7 394.4 207.4 389.6 207.4Z" fill="#61A9D6"/>
<path d="M409.9 207.6C403.9 207.6 399.3 203.3 399.3 197.1C399.3 190.9 404 186.6 409.9 186.6C415.9 186.6 420.5 190.9 420.5 197.1C420.4 203.3 415.8 207.6 409.9 207.6ZM409.9 190.2C406.4 190.2 403.3 193 403.3 197.2C403.3 201.3 406.3 204.1 409.9 204.1C413.4 204.1 416.4 201.3 416.4 197.2C416.4 193 413.3 190.2 409.9 190.2Z" fill="#61A9D6"/>
<path d="M434.8 191.3C434.4 191.2 433.9 191.1 433.3 191.1C430.7 191.1 428 192.3 428 197V207.1H424V187.1H428V191.2C428.8 188.3 431 186.9 433.8 186.9C434.4 186.9 435.3 187 435.7 187.2L434.8 191.3Z" fill="#61A9D6"/>
<path d="M448.2 205.2C445.2 212.6 441.9 215.8 438 217.6L435.4 215C438.9 213.5 441.7 211.1 444 205.4L436.5 187.2H440.6L444.3 196.2C444.8 197.4 445.5 199.2 446 200.8H446.1C446.7 199.3 447.4 197.5 447.9 196.3L451.6 187.2H455.4L448.2 205.2Z" fill="#61A9D6"/>
<path d="M475.4 207.3C472.4 207.3 469.7 206.4 468.3 205.4L467.8 200.9C469.8 202.4 472.7 203.5 475.7 203.5C478.7 203.5 480.8 201.8 480.8 199.3C480.8 196.7 479.3 195.3 476 194.3C471.1 192.7 468.5 190.2 468.5 186.1C468.5 182.2 471.4 178.5 477.3 178.5C480 178.5 482.3 179.3 483.3 180.1L482.5 183.7C481.5 183 479.4 182.1 477.1 182.1C474.3 182.1 472.6 183.8 472.6 185.8C472.6 187.8 474.1 189.1 477 190C481.8 191.6 485.1 193.9 485.1 198.9C485 204 481.7 207.3 475.4 207.3Z" fill="#61A9D6"/>
<path d="M506.3 195.8L504 198.1H492C492.1 200.6 494.4 204.1 499.1 204.1C501.7 204.1 503.5 203.4 504.9 202.5L504.5 206.4C503.1 207.1 501.3 207.7 498.6 207.7C492.9 207.7 487.9 203.5 487.9 197.2C487.9 190.4 493.2 186.7 497.8 186.7C503.3 186.7 506.4 190.6 506.4 194.3C506.4 194.8 506.4 195.4 506.3 195.8ZM498 190.1C495.5 190.1 492.8 192.1 492.3 194.9H502.4C502.4 194.7 502.4 194.5 502.4 194.4C502.4 192.3 500.7 190.1 498 190.1Z" fill="#61A9D6"/>
<path d="M520.8 191.3C520.4 191.2 519.9 191.1 519.3 191.1C516.7 191.1 514 192.3 514 197V207.1H510V187.1H514V191.2C514.8 188.3 517 186.9 519.8 186.9C520.4 186.9 521.3 187 521.7 187.2L520.8 191.3Z" fill="#61A9D6"/>
<path d="M532.6 207.4H531L522.7 187.1H526.8L530.5 196C531 197.3 531.6 199 532.1 200.5H532.2C532.7 199 533.3 197.2 533.8 196L537.4 187.1H541.1L532.6 207.4Z" fill="#61A9D6"/>
<path d="M546.3 183.2C545.5 183.2 543.9 181.6 543.9 180.8C543.9 180 545.5 178.4 546.3 178.4C547.1 178.4 548.7 180 548.7 180.8C548.7 181.6 547.1 183.2 546.3 183.2ZM544.3 207.1V187.1H548.4V207.1H544.3Z" fill="#61A9D6"/>
<path d="M568.5 192C566.7 190.9 565.1 190.5 563.2 190.5C559.6 190.5 556.3 193.1 556.3 197.2C556.3 201.3 559.7 203.9 563.3 203.9C565.2 203.9 566.7 203.5 568.5 202.7L568.1 206.4C566.6 207.1 564.9 207.4 562.9 207.4C557.5 207.4 552.2 203.6 552.2 197.2C552.2 190.8 557.5 186.9 562.9 186.9C565.5 186.9 567.5 187.4 569.2 188.4L568.5 192Z" fill="#61A9D6"/>
<path d="M589.7 195.8L587.4 198.1H575.4C575.5 200.6 577.8 204.1 582.5 204.1C585.1 204.1 586.9 203.4 588.3 202.5L587.9 206.4C586.5 207.1 584.7 207.7 582 207.7C576.3 207.7 571.3 203.5 571.3 197.2C571.3 190.4 576.6 186.7 581.2 186.7C586.7 186.7 589.8 190.6 589.8 194.3C589.8 194.8 589.8 195.4 589.7 195.8ZM581.4 190.1C578.9 190.1 576.2 192.1 575.7 194.9H585.8C585.8 194.7 585.8 194.5 585.8 194.4C585.8 192.3 584 190.1 581.4 190.1Z" fill="#61A9D6"/>
</svg>
